<svg width="188" height="85" viewBox="0 0 188 85" fill="none" xmlns="http://www.w3.org/2000/svg">
<rect width="188" height="85" rx="20" fill="white"/>
<rect x="10" y="8" width="40" height="40" rx="20" fill="#1CCD58"/>
<path d="M23.1084 37.0215C24.1294 37.0215 26.52 35.9839 28.0806 34.8799C28.2466 34.7637 28.3877 34.7222 28.5288 34.7222C28.6367 34.7305 28.728 34.7388 28.8027 34.7388C34.8042 34.7305 39.2617 31.543 39.2617 26.8613C39.2617 22.5034 34.9204 18.9922 29.5 18.9922C24.0796 18.9922 19.7383 22.5034 19.7383 26.8613C19.7383 29.5425 21.3237 31.9663 24.0879 33.4688C24.2622 33.5601 24.3037 33.6846 24.2207 33.8506C23.7227 34.6807 22.9258 35.5771 22.5938 36.0088C22.1953 36.5068 22.4194 37.0215 23.1084 37.0215Z" fill="white"/>
<rect x="74" y="8" width="40" height="40" rx="20" fill="#787880" fill-opacity="0.32"/>
<path d="M93.5 30.1899C95.2017 30.1899 96.5215 28.9116 96.5215 27.019V21.4077C96.5215 19.5151 95.2017 18.2368 93.5 18.2368C91.79 18.2368 90.4702 19.5151 90.4702 21.4077V27.019C90.4702 28.9116 91.79 30.1899 93.5 30.1899ZM86.9092 27.2432C86.9092 30.7876 89.2832 33.1699 92.6367 33.5186V35.0459H89.6152C89.1172 35.0459 88.7104 35.4443 88.7104 35.9341C88.7104 36.4238 89.1172 36.8306 89.6152 36.8306H97.3848C97.8745 36.8306 98.2896 36.4238 98.2896 35.9341C98.2896 35.4443 97.8745 35.0459 97.3848 35.0459H94.355V33.5186C97.7168 33.1699 100.083 30.7876 100.083 27.2432V25.6328C100.083 25.1431 99.6841 24.7612 99.186 24.7612C98.688 24.7612 98.2812 25.1431 98.2812 25.6328V27.1851C98.2812 30.0073 96.314 31.8667 93.5 31.8667C90.6777 31.8667 88.7188 30.0073 88.7188 27.1851V25.6328C88.7188 25.1431 88.3037 24.7612 87.814 24.7612C87.3159 24.7612 86.9092 25.1431 86.9092 25.6328V27.2432Z" fill="white"/>
<rect x="138" y="8" width="40" height="40" rx="20" fill="#787880" fill-opacity="0.32"/>
<path d="M17.085 67.281C17.7003 67.4283 18.164 67.6927 18.476 68.074C18.7967 68.4467 18.957 68.9277 18.957 69.517C18.957 70.3057 18.6667 70.9167 18.086 71.35C17.514 71.7833 16.6777 72 15.577 72H11.417V62.9H15.33C16.3267 62.9 17.1023 63.1037 17.657 63.511C18.2203 63.9097 18.502 64.486 18.502 65.24C18.502 65.734 18.3763 66.1543 18.125 66.501C17.8823 66.8477 17.5357 67.1077 17.085 67.281ZM12.704 66.904H15.239C15.8717 66.904 16.3527 66.7783 16.682 66.527C17.02 66.2757 17.189 65.9073 17.189 65.422C17.189 64.9367 17.02 64.5683 16.682 64.317C16.344 64.057 15.863 63.927 15.239 63.927H12.704V66.904ZM15.551 70.973C16.9463 70.973 17.644 70.453 17.644 69.413C17.644 68.893 17.4663 68.5117 17.111 68.269C16.7643 68.0177 16.2443 67.892 15.551 67.892H12.704V70.973H15.551ZM24.7239 72L22.7349 69.361L20.7199 72H19.3289L22.0459 68.477L19.4589 65.11H20.8499L22.7479 67.593L24.6329 65.11H25.9979L23.3979 68.477L26.1409 72H24.7239ZM29.6766 72.078C28.9919 72.078 28.3766 71.9263 27.8306 71.623C27.2846 71.3197 26.8556 70.9037 26.5436 70.375C26.2403 69.8377 26.0886 69.231 26.0886 68.555C26.0886 67.879 26.2403 67.2767 26.5436 66.748C26.8556 66.2107 27.2846 65.7947 27.8306 65.5C28.3766 65.1967 28.9919 65.045 29.6766 65.045C30.3613 65.045 30.9723 65.1967 31.5096 65.5C32.0556 65.7947 32.4803 66.2107 32.7836 66.748C33.0956 67.2767 33.2516 67.879 33.2516 68.555C33.2516 69.231 33.0956 69.8377 32.7836 70.375C32.4803 70.9037 32.0556 71.3197 31.5096 71.623C30.9723 71.9263 30.3613 72.078 29.6766 72.078ZM29.6766 70.986C30.1186 70.986 30.5129 70.8863 30.8596 70.687C31.2149 70.479 31.4923 70.193 31.6916 69.829C31.8909 69.4563 31.9906 69.0317 31.9906 68.555C31.9906 68.0783 31.8909 67.658 31.6916 67.294C31.4923 66.9213 31.2149 66.6353 30.8596 66.436C30.5129 66.2367 30.1186 66.137 29.6766 66.137C29.2346 66.137 28.8359 66.2367 28.4806 66.436C28.1339 66.6353 27.8566 66.9213 27.6486 67.294C27.4493 67.658 27.3496 68.0783 27.3496 68.555C27.3496 69.0317 27.4493 69.4563 27.6486 69.829C27.8566 70.193 28.1339 70.479 28.4806 70.687C28.8359 70.8863 29.2346 70.986 29.6766 70.986ZM41.5099 70.908V73.599H40.3399V72H34.5809V73.599H33.3979V70.908H33.7619C34.2039 70.882 34.5073 70.57 34.6719 69.972C34.8366 69.374 34.9493 68.529 35.0099 67.437L35.1139 65.11H40.4569V70.908H41.5099ZM36.1539 67.528C36.1193 68.3947 36.0456 69.114 35.9329 69.686C35.8289 70.2493 35.6339 70.6567 35.3479 70.908H39.2089V66.202H36.2189L36.1539 67.528ZM48.1608 65.11V72H47.0428V69.816H45.0408H44.8978L43.3898 72H42.0508L43.7278 69.647C43.2078 69.491 42.8091 69.2353 42.5318 68.88C42.2544 68.516 42.1158 68.0653 42.1158 67.528C42.1158 66.7393 42.3844 66.1413 42.9218 65.734C43.4591 65.318 44.2001 65.11 45.1448 65.11H48.1608ZM43.3898 67.567C43.3898 68.0263 43.5328 68.3687 43.8188 68.594C44.1134 68.8107 44.5511 68.919 45.1318 68.919H47.0428V66.202H45.1838C43.9878 66.202 43.3898 66.657 43.3898 67.567ZM59.9107 65.11V72H50.0957V65.11H51.3437V70.908H54.3857V65.11H55.6337V70.908H58.6627V65.11H59.9107ZM60.9377 70.908V73.469H59.7677V72H58.6107V70.908H60.9377ZM61.834 65.11H63.082V70.128L67.307 65.11H68.438V72H67.19V66.982L62.978 72H61.834V65.11ZM70.3604 65.11H71.6084V70.128L75.8334 65.11H76.9644V72H75.7164V66.982L71.5044 72H70.3604V65.11ZM73.5844 64.213C72.943 64.213 72.4447 64.0613 72.0894 63.758C71.734 63.446 71.552 62.9997 71.5434 62.419H72.3884C72.397 62.7397 72.5054 62.9997 72.7134 63.199C72.93 63.3897 73.216 63.485 73.5714 63.485C73.9267 63.485 74.2127 63.3897 74.4294 63.199C74.646 62.9997 74.7587 62.7397 74.7674 62.419H75.6384C75.6297 62.9997 75.4434 63.446 75.0794 63.758C74.7154 64.0613 74.217 64.213 73.5844 64.213ZM84.8289 72.078C84.1443 72.078 83.5289 71.9263 82.9829 71.623C82.4369 71.3197 82.0079 70.9037 81.6959 70.375C81.3926 69.8377 81.2409 69.231 81.2409 68.555C81.2409 67.879 81.3926 67.2767 81.6959 66.748C82.0079 66.2107 82.4369 65.7947 82.9829 65.5C83.5289 65.1967 84.1443 65.045 84.8289 65.045C85.5136 65.045 86.1246 65.1967 86.6619 65.5C87.2079 65.7947 87.6326 66.2107 87.9359 66.748C88.2479 67.2767 88.4039 67.879 88.4039 68.555C88.4039 69.231 88.2479 69.8377 87.9359 70.375C87.6326 70.9037 87.2079 71.3197 86.6619 71.623C86.1246 71.9263 85.5136 72.078 84.8289 72.078ZM84.8289 70.986C85.2709 70.986 85.6653 70.8863 86.0119 70.687C86.3673 70.479 86.6446 70.193 86.8439 69.829C87.0433 69.4563 87.1429 69.0317 87.1429 68.555C87.1429 68.0783 87.0433 67.658 86.8439 67.294C86.6446 66.9213 86.3673 66.6353 86.0119 66.436C85.6653 66.2367 85.2709 66.137 84.8289 66.137C84.3869 66.137 83.9883 66.2367 83.6329 66.436C83.2863 66.6353 83.0089 66.9213 82.8009 67.294C82.6016 67.658 82.5019 68.0783 82.5019 68.555C82.5019 69.0317 82.6016 69.4563 82.8009 69.829C83.0089 70.193 83.2863 70.479 83.6329 70.687C83.9883 70.8863 84.3869 70.986 84.8289 70.986ZM94.5872 66.202H92.0652V72H90.8172V66.202H88.2952V65.11H94.5872V66.202ZM98.5625 62.9H99.8495V69.92L105.232 62.9H106.428V72H105.154V64.993L99.7585 72H98.5625V62.9ZM114.472 65.11V72H113.224V66.202H110.26L110.182 67.736C110.138 68.6633 110.056 69.439 109.935 70.063C109.813 70.6783 109.614 71.1723 109.337 71.545C109.059 71.9177 108.674 72.104 108.18 72.104C107.954 72.104 107.699 72.065 107.413 71.987L107.491 70.934C107.603 70.96 107.707 70.973 107.803 70.973C108.149 70.973 108.409 70.8213 108.583 70.518C108.756 70.2147 108.869 69.855 108.921 69.439C108.973 69.023 109.02 68.4293 109.064 67.658L109.181 65.11H114.472ZM119.57 67.45C120.445 67.4587 121.112 67.658 121.572 68.048C122.031 68.438 122.261 68.9883 122.261 69.699C122.261 70.4443 122.009 71.0207 121.507 71.428C121.013 71.8267 120.302 72.0217 119.375 72.013L116.385 72V65.11H117.633V67.437L119.57 67.45ZM119.271 71.064C119.834 71.0727 120.259 70.96 120.545 70.726C120.839 70.492 120.987 70.1453 120.987 69.686C120.987 69.2353 120.844 68.906 120.558 68.698C120.28 68.49 119.851 68.3817 119.271 68.373L117.633 68.347V71.051L119.271 71.064ZM128.392 65.11V72H127.274V69.816H125.272H125.129L123.621 72H122.282L123.959 69.647C123.439 69.491 123.041 69.2353 122.763 68.88C122.486 68.516 122.347 68.0653 122.347 67.528C122.347 66.7393 122.616 66.1413 123.153 65.734C123.691 65.318 124.432 65.11 125.376 65.11H128.392ZM123.621 67.567C123.621 68.0263 123.764 68.3687 124.05 68.594C124.345 68.8107 124.783 68.919 125.363 68.919H127.274V66.202H125.415C124.219 66.202 123.621 66.657 123.621 67.567Z" fill="black"/>
</svg>
