<svg width="321" height="372" viewBox="0 0 321 372" fill="none" xmlns="http://www.w3.org/2000/svg">
<path fill-rule="evenodd" clip-rule="evenodd" d="M195.82 50.8854C253.267 62.8618 272.971 126.848 281.756 184.793C290.39 241.743 288.948 306.476 238.908 335.089C181.82 367.733 108.393 357.099 62.0758 310.41C15.9751 263.939 9.79615 192.482 39.7581 134.342C69.6117 76.4119 131.94 37.5678 195.82 50.8854Z" stroke="#9A4AF6"/>
<path fill-rule="evenodd" clip-rule="evenodd" d="M201.82 23.8854C259.267 35.8618 278.971 99.8481 287.756 157.793C296.39 214.743 294.948 279.476 244.908 308.089C187.82 340.733 114.393 330.099 68.0758 283.41C21.9751 236.939 15.7962 165.482 45.7581 107.342C75.6117 49.4119 137.94 10.5678 201.82 23.8854Z" stroke="#9A4AF6"/>
</svg>
