<svg width="1295" height="343" viewBox="0 0 1295 343" fill="none" xmlns="http://www.w3.org/2000/svg">
<path d="M1276.37 49.5036C1286.66 49.5036 1295 58.458 1295 69.5037V275.001C1295 286.047 1286.66 295.001 1276.37 295.001H1177.84C1168.42 297.999 1161.54 307.385 1161.54 318.5C1161.54 330.948 1170.17 341.228 1181.34 342.794V343H1117.99V342.794C1129.16 341.228 1137.78 330.948 1137.78 318.5C1137.78 307.385 1130.91 297.999 1121.48 295.001H18.6331C8.34232 295.001 0 286.047 0 275.001V20.0001C0 8.95434 8.34232 0 18.6331 0H469.745C474.087 0 478.292 1.62711 481.634 4.60039L526.945 44.9033C530.288 47.8765 534.493 49.5036 538.835 49.5036H1276.37Z" fill="currentColor"/>
</svg>
