<svg width="26" height="26" viewBox="0 0 26 26" fill="none" xmlns="http://www.w3.org/2000/svg">
<g clip-path="url(#clip0_234_205)">
<path d="M26 13C26 20.1797 20.1797 26 13 26C5.8203 26 0 20.1797 0 13C0 5.8203 5.8203 0 13 0C20.1797 0 26 5.8203 26 13Z" fill="#F8AA4E"/>
<path d="M11.5 12C12.8924 12 14.2277 11.4205 15.2123 10.3891C16.1969 9.35764 16.75 7.95869 16.75 6.5C16.75 5.04131 16.1969 3.64236 15.2123 2.61091C14.2277 1.57946 12.8924 1 11.5 1C10.1076 1 8.77226 1.57946 7.78769 2.61091C6.80312 3.64236 6.25 5.04131 6.25 6.5C6.25 7.95869 6.80312 9.35764 7.78769 10.3891C8.77226 11.4205 10.1076 12 11.5 12ZM15 6.5C15 7.47246 14.6313 8.40509 13.9749 9.09272C13.3185 9.78036 12.4283 10.1667 11.5 10.1667C10.5717 10.1667 9.6815 9.78036 9.02513 9.09272C8.36875 8.40509 8 7.47246 8 6.5C8 5.52754 8.36875 4.59491 9.02513 3.90727C9.6815 3.21964 10.5717 2.83333 11.5 2.83333C12.4283 2.83333 13.3185 3.21964 13.9749 3.90727C14.6313 4.59491 15 5.52754 15 6.5ZM22 21.1667C22 23 20.25 23 20.25 23H2.75C2.75 23 1 23 1 21.1667C1 19.3333 2.75 13.8333 11.5 13.8333C20.25 13.8333 22 19.3333 22 21.1667ZM20.25 21.1593C20.2482 20.7083 19.9805 19.3517 18.794 18.1087C17.653 16.9133 15.5057 15.6667 11.5 15.6667C7.4925 15.6667 5.347 16.9133 4.206 18.1087C3.0195 19.3517 2.7535 20.7083 2.75 21.1593H20.25Z" fill="#181818"/>
</g>
<defs>
<clipPath id="clip0_234_205">
<rect width="26" height="26" fill="white"/>
</clipPath>
</defs>
</svg>
