<svg width="28" height="27" viewBox="0 0 28 27" fill="none" xmlns="http://www.w3.org/2000/svg">
<path d="M28 13C28 20.1797 22.1797 26 15 26C7.8203 26 2 20.1797 2 13C2 5.8203 7.8203 0 15 0C22.1797 0 28 5.8203 28 13Z" fill="#F8AA4E"/>
<path d="M12.4353 1.72794C12.8033 0.757354 14.1959 0.757354 14.565 1.72794L16.9454 8.32194C17.1121 8.75893 17.5365 9.04988 18.0102 9.04988H23.86C24.941 9.04988 25.4125 10.3954 24.5626 11.0543L20.3998 14.7998C20.2134 14.9431 20.0771 15.1419 20.0106 15.3675C19.944 15.5931 19.9507 15.834 20.0295 16.0556L21.5498 22.4989C21.9201 23.5339 20.7218 24.4228 19.8157 23.7858L14.1614 20.1978C13.9677 20.0617 13.7368 19.9887 13.5001 19.9887C13.2635 19.9887 13.0326 20.0617 12.8389 20.1978L7.18462 23.7858C6.27961 24.4228 5.08021 23.5328 5.4505 22.4989L6.97073 16.0556C7.04959 15.834 7.05624 15.5931 6.98971 15.3675C6.92319 15.1419 6.78692 14.9431 6.60045 14.7998L2.43763 11.0543C1.58667 10.3954 2.06045 9.04988 3.1391 9.04988H8.98889C9.21921 9.05065 9.44435 8.98146 9.63449 8.85147C9.82464 8.72149 9.97084 8.53683 10.0537 8.32194L12.4341 1.72794H12.4353Z" stroke="#181818" stroke-width="2" stroke-linecap="round" stroke-linejoin="round"/>
</svg>
