<svg width="28" height="29" viewBox="0 0 28 29" fill="none" xmlns="http://www.w3.org/2000/svg">
<circle cx="15" cy="13" r="13" fill="#F8AA4E"/>
<circle cx="14" cy="15" r="13" stroke="#181818" stroke-width="2"/>
<path d="M15.2221 11.4444C16.204 11.4444 16.9999 10.6485 16.9999 9.66666C16.9999 8.68482 16.204 7.88889 15.2221 7.88889C14.2403 7.88889 13.4443 8.68482 13.4443 9.66666C13.4443 10.6485 14.2403 11.4444 15.2221 11.4444Z" fill="#181818"/>
<path d="M17.0401 18.6578C16.991 18.6247 16.9358 18.6018 16.8777 18.5904C16.8196 18.579 16.7598 18.5793 16.7019 18.5913C16.6439 18.6033 16.5889 18.6268 16.5402 18.6603C16.4914 18.6939 16.4498 18.7368 16.4179 18.7867C15.9882 19.4229 15.4619 19.9883 14.8579 20.4622C14.7112 20.5733 14.1645 20.9955 13.9334 20.9067C13.7734 20.8578 13.8668 20.5422 13.8979 20.4089L14.1334 19.7111C14.2312 19.4267 15.9334 14.3778 16.1201 13.8C16.3957 12.9556 16.2757 12.1244 15.0179 12.3244C14.6757 12.36 11.2045 12.8089 11.1423 12.8133C11.084 12.8171 11.0269 12.8324 10.9744 12.8582C10.922 12.8841 10.8751 12.92 10.8365 12.9639C10.7979 13.0079 10.7684 13.059 10.7495 13.1144C10.7307 13.1698 10.723 13.2283 10.7268 13.2867C10.7306 13.345 10.7458 13.4021 10.7717 13.4545C10.7975 13.507 10.8334 13.5539 10.8774 13.5925C10.9213 13.6311 10.9724 13.6606 11.0278 13.6794C11.0832 13.6983 11.1417 13.706 11.2001 13.7022C11.2001 13.7022 12.5334 13.5289 12.6801 13.5156C12.7552 13.5082 12.8309 13.5228 12.8979 13.5575C12.9649 13.5922 13.0205 13.6455 13.0579 13.7111C13.1384 13.9601 13.1274 14.2296 13.0268 14.4711C12.9112 14.9155 11.0845 20.0622 11.0268 20.36C10.9648 20.6092 10.982 20.8715 11.076 21.1104C11.17 21.3494 11.3361 21.5531 11.5512 21.6933C11.955 21.9624 12.4358 22.092 12.9201 22.0622C13.391 22.0565 13.8567 21.963 14.2934 21.7867C15.4001 21.3422 16.5557 20.16 17.1645 19.2311C17.217 19.1367 17.2333 19.0265 17.2104 18.921C17.1875 18.8155 17.1269 18.7219 17.0401 18.6578Z" fill="#181818"/>
</svg>
