<svg width="26" height="26" viewBox="0 0 26 26" fill="none" xmlns="http://www.w3.org/2000/svg">
<g clip-path="url(#clip0_234_217)">
<path d="M26 13C26 20.1797 20.1797 26 13 26C5.8203 26 0 20.1797 0 13C0 5.8203 5.8203 0 13 0C20.1797 0 26 5.8203 26 13Z" fill="#F8AA4E"/>
<path d="M13 16C15.7575 16 18 13.9818 18 11.5C18 9.01825 15.7575 7 13 7C10.2425 7 8 9.01825 8 11.5C8 13.9818 10.2425 16 13 16ZM13 9.25C14.3787 9.25 15.5 10.2591 15.5 11.5C15.5 12.7409 14.3787 13.75 13 13.75C11.6212 13.75 10.5 12.7409 10.5 11.5C10.5 10.2591 11.6212 9.25 13 9.25Z" fill="black"/>
<path d="M12.275 25.777C12.4866 25.922 12.74 26 13 26C13.26 26 13.5134 25.922 13.725 25.777C14.105 25.519 23.0361 19.3281 22.9999 11.6001C22.9999 6.30683 18.5137 2 13 2C7.48631 2 3.00011 6.30683 3.00011 11.5941C2.96386 19.3281 11.895 25.519 12.275 25.777ZM13 4.40002C17.1362 4.40002 20.4999 7.62925 20.4999 11.6061C20.5262 16.9317 15.015 21.7138 13 23.2822C10.9863 21.7126 5.47383 16.9293 5.50008 11.6001C5.50008 7.62924 8.8638 4.40002 13 4.40002Z" fill="black"/>
</g>
<defs>
<clipPath id="clip0_234_217">
<rect width="26" height="26" fill="white"/>
</clipPath>
</defs>
</svg>
