<svg width="24" height="25" viewBox="0 0 24 25" fill="none" xmlns="http://www.w3.org/2000/svg">
<path d="M10.4096 5.87687L6.68832 1.38638C6.25933 0.868915 5.47283 0.871215 4.97453 1.39328L1.91435 4.59814C1.00356 5.55143 0.742857 6.967 1.26975 8.10198C4.41752 14.9153 9.67376 20.4178 16.1868 23.718C17.2714 24.2689 18.6244 23.9963 19.5352 23.043L22.6239 19.8083C23.1244 19.2851 23.1255 18.4583 22.6261 18.0098L18.3142 14.1403C17.8632 13.7355 17.1625 13.7884 16.7104 14.2622L15.21 15.833C15.1332 15.9171 15.0321 15.9726 14.9222 15.9909C14.8123 16.0092 14.6997 15.9892 14.6017 15.9342C12.1492 14.4578 10.1148 12.3282 8.70571 9.76248C8.65294 9.65985 8.63384 9.54196 8.65132 9.42688C8.66881 9.31181 8.72192 9.20591 8.80251 9.12542L10.2985 7.56036C10.7517 7.08429 10.8012 6.34834 10.4096 5.87572V5.87687Z" stroke="currentColor" stroke-width="2" stroke-linecap="round" stroke-linejoin="round"/>
</svg>
