<svg width="29" height="26" viewBox="0 0 29 26" fill="none" xmlns="http://www.w3.org/2000/svg">
<path d="M19 7.69233V4.80771C19 4.04266 18.6839 3.30895 18.1213 2.76798C17.5587 2.22701 16.7956 1.9231 16 1.9231H13C12.2044 1.9231 11.4413 2.22701 10.8787 2.76798C10.3161 3.30895 10 4.04266 10 4.80771V7.69233M19 7.69233H10M19 7.69233H25C25.7956 7.69233 26.5587 7.99624 27.1213 8.53721C27.6839 9.07818 28 9.81189 28 10.5769V22.1154C28 22.8805 27.6839 23.6142 27.1213 24.1551C26.5587 24.6961 25.7956 25 25 25H7M10 7.69233H7M7 25H4C3.20435 25 2.44129 24.6961 1.87868 24.1551C1.31607 23.6142 1 22.8805 1 22.1154V10.5769C1 9.81189 1.31607 9.07818 1.87868 8.53721C2.44129 7.99624 3.20435 7.69233 4 7.69233H7M7 25V7.69233M22 7.69233V25" stroke="currentColor" stroke-width="2" stroke-linecap="round" stroke-linejoin="round"/>
</svg>
