<svg width="24" height="24" viewBox="0 0 24 24" fill="none" xmlns="http://www.w3.org/2000/svg">
<g clip-path="url(#clip0_231_270)">
<path d="M11.9999 13.1666C12.6443 13.1666 13.1666 12.6443 13.1666 11.9999C13.1666 11.3556 12.6443 10.8333 11.9999 10.8333C11.3556 10.8333 10.8333 11.3556 10.8333 11.9999C10.8333 12.6443 11.3556 13.1666 11.9999 13.1666Z" fill="currentColor"/>
<path d="M16.6667 13.1666C17.311 13.1666 17.8333 12.6443 17.8333 11.9999C17.8333 11.3556 17.311 10.8333 16.6667 10.8333C16.0223 10.8333 15.5 11.3556 15.5 11.9999C15.5 12.6443 16.0223 13.1666 16.6667 13.1666Z" fill="currentColor"/>
<path d="M7.33342 13.1666C7.97775 13.1666 8.50008 12.6443 8.50008 11.9999C8.50008 11.3556 7.97775 10.8333 7.33342 10.8333C6.68908 10.8333 6.16675 11.3556 6.16675 11.9999C6.16675 12.6443 6.68908 13.1666 7.33342 13.1666Z" fill="currentColor"/>
<path d="M20.2482 3.75161C18.334 1.82486 15.8075 0.62636 13.1043 0.362727C10.4011 0.0990938 7.69063 0.786852 5.44018 2.30743C3.18972 3.82801 1.5403 6.08612 0.776285 8.69246C0.0122685 11.2988 0.181532 14.09 1.25489 16.5849C1.36677 16.8168 1.40347 17.0779 1.35989 17.3316L0.333227 22.2666C0.293673 22.4558 0.30175 22.6519 0.356733 22.8372C0.411715 23.0225 0.511881 23.1913 0.648227 23.3283C0.759999 23.4392 0.89308 23.5264 1.03945 23.5846C1.18582 23.6427 1.34245 23.6706 1.49989 23.6666H1.73323L6.72656 22.6633C6.98035 22.6328 7.2377 22.669 7.47323 22.7683C9.96814 23.8416 12.7594 24.0109 15.3657 23.2469C17.9721 22.4829 20.2302 20.8335 21.7507 18.583C23.2713 16.3325 23.9591 13.6221 23.6954 10.9189C23.4318 8.2157 22.2333 5.6892 20.3066 3.77494L20.2482 3.75161ZM21.2166 13.5049C20.9885 14.8979 20.4474 16.221 19.634 17.3747C18.8207 18.5283 17.7563 19.4825 16.5209 20.1653C15.2855 20.8481 13.9114 21.2418 12.5018 21.3168C11.0923 21.3918 9.68409 21.1462 8.38323 20.5983C7.92186 20.402 7.42625 20.2989 6.92489 20.2949C6.70589 20.2965 6.48737 20.316 6.27156 20.3533L2.98156 21.0183L3.64656 17.7283C3.77901 17.0158 3.69363 16.2799 3.40156 15.6166C2.85368 14.3157 2.608 12.9076 2.683 11.498C2.758 10.0885 3.15173 8.71432 3.83456 7.47894C4.51739 6.24356 5.47153 5.17914 6.62517 4.3658C7.77882 3.55246 9.10192 3.01138 10.4949 2.78328C11.957 2.54331 13.4553 2.65491 14.8658 3.10885C16.2762 3.56278 17.5584 4.34601 18.6061 5.39374C19.6538 6.44147 20.4371 7.72359 20.891 9.13405C21.3449 10.5445 21.4565 12.0428 21.2166 13.5049Z" fill="currentColor"/>
</g>
<defs>
<clipPath id="clip0_231_270">
<rect width="24" height="24" fill="white"/>
</clipPath>
</defs>
</svg>
