<svg width="85" height="85" viewBox="0 0 85 85" fill="none" xmlns="http://www.w3.org/2000/svg">
<g clip-path="url(#clip0_929_120)">
<circle cx="43" cy="44" r="38" fill="#FFB762"/>
<path d="M54.5 21.8333V13.9167C54.5 11.817 53.6659 9.8034 52.1813 8.31874C50.6966 6.83407 48.683 6 46.5833 6H38.6667C36.567 6 34.5534 6.83407 33.0687 8.31874C31.5841 9.8034 30.75 11.817 30.75 13.9167V21.8333M54.5 21.8333H30.75M54.5 21.8333H70.3333C72.433 21.8333 74.4466 22.6674 75.9313 24.1521C77.4159 25.6367 78.25 27.6504 78.25 29.75V61.4167C78.25 63.5163 77.4159 65.5299 75.9313 67.0146C74.4466 68.4993 72.433 69.3333 70.3333 69.3333H22.8333M30.75 21.8333H22.8333M22.8333 69.3333H14.9167C12.817 69.3333 10.8034 68.4993 9.31874 67.0146C7.83407 65.5299 7 63.5163 7 61.4167V29.75C7 27.6504 7.83407 25.6367 9.31874 24.1521C10.8034 22.6674 12.817 21.8333 14.9167 21.8333H22.8333M22.8333 69.3333V21.8333M62.4167 21.8333V69.3333" stroke="#1A1918" stroke-width="5" stroke-linecap="round" stroke-linejoin="round"/>
</g>
<defs>
<clipPath id="clip0_929_120">
<rect width="77" height="79" fill="white" transform="translate(4 3)"/>
</clipPath>
</defs>
</svg>
