<svg width="28" height="26" viewBox="0 0 28 26" fill="none" xmlns="http://www.w3.org/2000/svg">
<path d="M6.36381 0L5.63281 0.719L0.951438 5.125L0.1875 5.813L7.82475 13L2.51225 18L2.44531 18.313L1.28294 23.813L0.951438 25.281L2.51225 24.969L8.356 23.875L8.6875 23.812L14 18.812L21.6033 25.969L22.3342 25.25L27.0156 20.844L27.7796 20.156L20.1753 13L25.4219 8.062C25.8283 7.6809 26.1508 7.22801 26.3709 6.72933C26.5909 6.23065 26.7042 5.69598 26.7042 5.156C26.7042 4.61602 26.5909 4.08135 26.3709 3.58267C26.1508 3.08399 25.8283 2.63111 25.4219 2.25C25.0177 1.86563 24.537 1.5601 24.0071 1.35092C23.4773 1.14174 22.9088 1.03302 22.3342 1.031C21.7595 1.03289 21.1908 1.14154 20.6608 1.35073C20.1308 1.55991 19.6498 1.86551 19.2456 2.25L14 7.188L6.36381 0ZM6.36381 2.844L8.42188 4.812L6.86106 6.282L8.38894 7.719L9.94975 6.25L12.4721 8.625L9.31862 11.594L3.17631 5.813L6.36381 2.844ZM22.3332 2.969C22.8857 2.969 23.4467 3.203 23.9269 3.656C24.8864 4.559 24.8864 5.723 23.9269 6.625L23.231 7.281L20.0754 4.312L20.7734 3.656C21.2547 3.203 21.7828 2.969 22.3342 2.969H22.3332ZM18.5826 5.719L21.7361 8.688L8.88725 20.78C8.18396 19.5093 7.08223 18.4731 5.73163 17.812L18.5826 5.719ZM18.6814 14.406L21.2048 16.781L19.6111 18.281L21.1389 19.719L22.7327 18.219L24.7578 20.125L21.5703 23.125L15.4939 17.406L18.6814 14.406ZM4.37163 19.406C5.64555 19.9099 6.65874 20.8638 7.19362 22.063L3.67356 22.719L4.37163 19.406Z" fill="currentColor"/>
</svg>
