<svg width="100" height="100" viewBox="0 0 100 100" fill="none" xmlns="http://www.w3.org/2000/svg">
<rect width="100" height="100" rx="20" fill="url(#paint0_linear_108_160)"/>
<rect x="14" y="59" width="61" height="4" rx="2" fill="white"/>
<rect x="14" y="71" width="75" height="4" rx="2" fill="#CFFF83"/>
<rect x="14" y="79" width="65" height="4" rx="2" fill="#CFFF83"/>
<path d="M33.7468 18.7541L32.4177 15.9145L29.5781 14.5854L32.4177 13.2562L33.7468 10.4166L35.076 13.2562L37.9156 14.5854L35.076 15.9145L33.7468 18.7541ZM36.2843 27.4843L35.3853 25.574L33.475 24.675L35.3853 23.776L36.2843 21.8656L37.1833 23.776L39.0937 24.675L37.1833 25.574L36.2843 27.4843ZM20.4854 34.5833L20.1833 31.8041C19.9014 31.7638 19.6093 31.6732 19.3073 31.5322C19.0052 31.3913 18.7434 31.2201 18.5218 31.0187L16.1656 32.0156L13.5073 27.6656L15.8031 26.1552C15.7024 25.8128 15.6521 25.5107 15.6521 25.2489C15.6521 24.9871 15.7024 24.685 15.8031 24.3427L13.5073 22.8323L16.1656 18.4823L18.5218 19.4791C18.7434 19.2777 19.0052 19.1066 19.3073 18.9656C19.6093 18.8246 19.9014 18.734 20.1833 18.6937L20.4877 15.9145H25.5604L25.8625 18.6937C26.1444 18.734 26.4364 18.8246 26.7385 18.9656C27.0406 19.1066 27.3024 19.2777 27.5239 19.4791L29.8802 18.4823L32.5385 22.8323L30.2427 24.3427C30.3434 24.685 30.3937 24.9871 30.3937 25.2489C30.3937 25.5107 30.3434 25.8128 30.2427 26.1552L32.5385 27.6656L29.8802 32.0156L27.5239 31.0187C27.3024 31.2201 27.0406 31.3913 26.7385 31.5322C26.4364 31.6732 26.1444 31.7638 25.8625 31.8041L25.5581 34.5833H20.4854ZM23.0229 28.7229C24.0298 28.7229 24.8606 28.3956 25.5151 27.7411C26.1696 27.0866 26.4968 26.2559 26.4968 25.2489C26.4968 24.242 26.1696 23.4112 25.5151 22.7567C24.8606 22.1022 24.0298 21.775 23.0229 21.775C22.0159 21.775 21.1852 22.1022 20.5307 22.7567C19.8762 23.4112 19.5489 24.242 19.5489 25.2489C19.5489 26.2559 19.8762 27.0866 20.5307 27.7411C21.1852 28.3956 22.0159 28.7229 23.0229 28.7229ZM23.0229 26.9104C22.5396 26.9104 22.1418 26.7543 21.8297 26.4421C21.5175 26.13 21.3614 25.7323 21.3614 25.2489C21.3614 24.7656 21.5175 24.3678 21.8297 24.0557C22.1418 23.7435 22.5396 23.5875 23.0229 23.5875C23.5062 23.5875 23.904 23.7435 24.2161 24.0557C24.5283 24.3678 24.6843 24.7656 24.6843 25.2489C24.6843 25.7323 24.5283 26.13 24.2161 26.4421C23.904 26.7543 23.5062 26.9104 23.0229 26.9104ZM21.9958 32.7708H24.05L24.2916 30.475C24.8757 30.334 25.4093 30.1326 25.8927 29.8708C26.376 29.609 26.8167 29.2666 27.2148 28.8437L29.1854 29.7198L30.1823 28.1489L28.3093 26.8197C28.5309 26.3163 28.6416 25.7927 28.6416 25.2489C28.6416 24.7052 28.5309 24.1816 28.3093 23.6781L30.1823 22.3489L29.1854 20.7781L27.2148 21.6541C26.8167 21.2312 26.376 20.8888 25.8927 20.627C25.4093 20.3652 24.8757 20.1638 24.2916 20.0229L24.05 17.727H21.9958L21.7541 20.0229C21.1701 20.1638 20.6364 20.3652 20.1531 20.627C19.6698 20.8888 19.2291 21.2312 18.831 21.6541L16.8604 20.7781L15.8635 22.3489L17.7364 23.6781C17.5149 24.1816 17.4041 24.7052 17.4041 25.2489C17.4041 25.7927 17.5149 26.3163 17.7364 26.8197L15.8635 28.1489L16.8604 29.7198L18.831 28.8437C19.2291 29.2666 19.6698 29.609 20.1531 29.8708C20.6364 30.1326 21.1701 30.334 21.7541 30.475L21.9958 32.7708Z" fill="#CFFF83"/>
<defs>
<linearGradient id="paint0_linear_108_160" x1="50" y1="0" x2="50" y2="100" gradientUnits="userSpaceOnUse">
<stop stop-color="#1CCD58"/>
<stop offset="1" stop-color="#B9FF4A"/>
</linearGradient>
</defs>
</svg>
