<svg width="402" height="437" viewBox="0 0 402 437" fill="none" xmlns="http://www.w3.org/2000/svg">
<path fill-rule="evenodd" clip-rule="evenodd" d="M143.496 51.5239C210.046 25.164 283.404 62.4622 325.122 120.771C362.26 172.678 351.473 240.232 316.792 293.737C279.074 351.928 219.349 406.575 153.055 386.237C88.3824 366.395 77.3387 287.365 75.4057 219.681C73.496 152.81 81.3968 76.1206 143.496 51.5239Z" stroke="#F8AA4E"/>
<path fill-rule="evenodd" clip-rule="evenodd" d="M143.824 71.0222C210.374 44.6623 283.732 81.9605 325.45 140.27C362.588 192.176 351.801 259.73 317.12 313.236C279.403 371.426 219.677 426.074 153.383 405.735C88.7105 385.894 77.6668 306.864 75.7339 239.179C73.8241 172.308 81.725 95.6189 143.824 71.0222Z" stroke="#F8AA4E"/>
</svg>
