<svg width="71" height="27" viewBox="0 0 71 27" fill="none" xmlns="http://www.w3.org/2000/svg">
<path d="M20.0223 21.0858C18.2175 22.2078 16.1325 22.8044 14.0024 22.8044L10.4449 22.8044L10.4449 18.0611H14.0024C15.3194 18.0611 16.6068 17.6706 17.7019 16.9389C18.7064 16.2677 19.5076 15.3371 20.0223 14.2485V21.0858Z" fill="url(#paint0_linear_341_56)"/>
<path d="M28.2594 21.3542C28.2594 24.036 29.0256 25.2127 31.5159 25.2127L33.6504 22.5035C32.0905 22.3394 31.7074 22.1478 31.7074 21.3542V3.51196H28.2594V21.3542Z" fill="black"/>
<path d="M40.8359 8.98504C38.1267 8.98504 35.9649 9.83337 34.9797 11.4479L37.6615 13.1719C38.1541 12.2689 39.3034 11.7216 40.7812 11.7216C42.4778 11.7216 43.5724 12.1321 43.5724 13.774V14.4034L40.617 14.677C37.1963 15.0328 34.7608 15.9359 34.7608 19.466C34.7608 22.2299 36.5669 23.8171 39.4676 23.8171C41.0001 23.8171 42.4778 23.215 43.8461 21.9562V23.4066H47.0205V13.8834C47.0205 10.107 44.8313 8.98504 40.8359 8.98504ZM38.3183 19.4113C38.3183 17.6325 39.8508 17.2494 41.8211 17.0578L43.5724 16.8936V19.5754C42.9704 20.068 42.3957 20.4238 41.7937 20.6974C41.1917 20.9711 40.6717 21.0805 40.2612 21.0805C39.0298 21.0805 38.3183 20.6701 38.3183 19.4113Z" fill="black"/>
<path d="M52.4844 3.81298C51.1435 3.81298 50.5962 4.27819 50.5962 5.56437C50.5962 6.82318 51.1161 7.31575 52.4844 7.31575C53.7979 7.31575 54.4273 6.90527 54.4273 5.56437C54.4273 4.25083 53.8253 3.81298 52.4844 3.81298ZM50.7877 23.4066H54.2358V9.39552H50.7877V23.4066Z" fill="black"/>
<path d="M66.1008 23.4066H70.1782L65.3346 16.2916L70.1509 9.39552H66.3471L63.4737 13.8287L60.6824 9.39552H56.6597L61.4213 16.4832L56.5776 23.4066H60.4088L63.3095 18.946L66.1008 23.4066Z" fill="black"/>
<path d="M17.7019 16.9389C17.3253 17.1906 16.926 17.4019 16.5105 17.5708V22.5253C17.8691 22.2189 19.1673 21.6646 20.3372 20.8829C22.2123 19.63 23.6737 17.8492 24.5367 15.7657C25.3997 13.6822 25.6255 11.3896 25.1856 9.17778C24.7456 6.96597 23.6597 4.93428 22.065 3.33965C20.4704 1.74501 18.4387 0.659054 16.2269 0.219096C14.0151 -0.220862 11.7225 0.00494027 9.63898 0.867949C7.5555 1.73096 5.77471 3.19241 4.52181 5.0675C3.26892 6.94259 2.60019 9.1471 2.60019 11.4023L7.34352 11.4023C7.34352 10.0852 7.73406 8.79781 8.46575 7.70276C9.19744 6.60771 10.2374 5.75422 11.4542 5.25022C12.6709 4.74622 14.0098 4.61436 15.3015 4.87129C16.5932 5.12823 17.7797 5.76243 18.711 6.69369C19.6423 7.62496 20.2765 8.81146 20.5334 10.1032C20.7903 11.3949 20.6585 12.7338 20.1545 13.9505C19.6505 15.1673 18.797 16.2072 17.7019 16.9389Z" fill="black"/>
<path d="M0 14.3662L7.47985 14.3665V27.0001H2.73651V18.5774H0V14.3662Z" fill="black"/>
<defs>
<linearGradient id="paint0_linear_341_56" x1="16.2938" y1="19.7486" x2="10.7865" y2="19.7531" gradientUnits="userSpaceOnUse">
<stop/>
<stop offset="1" stop-opacity="0"/>
</linearGradient>
</defs>
</svg>
