<svg width="1891" height="1139" viewBox="0 0 1891 1139" fill="none" xmlns="http://www.w3.org/2000/svg">
<path fill-rule="evenodd" clip-rule="evenodd" d="M398.595 688.189C418.759 757.844 366.26 824.328 321.857 883.651C284.997 932.897 237.643 972.506 177.207 983.971C114.177 995.929 51.2836 981.605 0.400154 944.638C-59.994 900.761 -133.451 842.918 -118.576 769.084C-104.076 697.112 -3.92287 692.374 59.1952 652.8C116.99 616.564 158.987 545.96 226.128 552.961C303.627 561.042 377.247 614.444 398.595 688.189Z" stroke="#E5E5E5" stroke-width="3" stroke-linecap="round" stroke-linejoin="round" stroke-dasharray="8 10"/>
<path d="M141.421 820.399C141.421 824.613 138.06 827.992 133.96 827.992C129.861 827.992 126.5 824.613 126.5 820.399C126.5 816.185 129.861 812.806 133.96 812.806C138.06 812.806 141.421 816.185 141.421 820.399Z" stroke="#E5E5E5" stroke-width="3"/>
<rect x="188.999" y="653.306" width="6" height="13" rx="3" fill="#E5E5E5"/>
<rect x="1731" y="143" width="8" height="19" rx="4" fill="#E5E5E5"/>
<rect x="1399.46" y="251.804" width="8.96027" height="22.7319" rx="4.48014" fill="white"/>
<rect x="188.999" y="669.306" width="6" height="13" rx="3" fill="#E5E5E5"/>
<rect x="1731" y="168" width="8" height="20" rx="4" fill="#E5E5E5"/>
<rect x="1399.46" y="281.811" width="8.96027" height="22.7319" rx="4.48014" fill="white"/>
<rect x="206.999" y="665.306" width="5" height="12" rx="2.5" transform="rotate(90 206.999 665.306)" fill="#E5E5E5"/>
<rect x="1758" y="162" width="7" height="19" rx="3.5" transform="rotate(90 1758 162)" fill="#E5E5E5"/>
<rect x="1430.83" y="273.627" width="9.09274" height="22.4007" rx="4.54637" transform="rotate(90 1430.83 273.627)" fill="white"/>
<rect x="188.999" y="665.306" width="5" height="12" rx="2.5" transform="rotate(90 188.999 665.306)" fill="#E5E5E5"/>
<rect x="1731" y="162" width="7" height="19" rx="3.5" transform="rotate(90 1731 162)" fill="#E5E5E5"/>
<rect x="1399.46" y="273.627" width="9.09274" height="22.4007" rx="4.54637" transform="rotate(90 1399.46 273.627)" fill="white"/>
</svg>
