<svg width="79" height="68" viewBox="0 0 79 68" fill="none" xmlns="http://www.w3.org/2000/svg">
<path d="M19.9542 5.26586C19.9542 4.21032 20.8098 3.35463 21.8654 3.35463H76.3354C77.391 3.35463 78.2467 4.21032 78.2467 5.26586C78.2467 6.3214 77.391 7.17709 76.3354 7.17709H21.8654C20.8098 7.17709 19.9542 6.3214 19.9542 5.26586Z" fill="#C0C0C0"/>
<path d="M10.3882 5.26698C10.3882 7.90584 8.24902 10.0451 5.61016 10.0451C2.97131 10.0451 0.832092 7.90584 0.832092 5.26698C0.832092 2.62813 2.97131 0.488911 5.61016 0.488911C8.24902 0.488911 10.3882 2.62813 10.3882 5.26698Z" fill="#4669FF"/>
<path d="M19.9542 24.3742C19.9542 23.3187 20.8098 22.463 21.8654 22.463H76.3354C77.391 22.463 78.2467 23.3187 78.2467 24.3742C78.2467 25.4298 77.391 26.2855 76.3354 26.2855H21.8654C20.8098 26.2855 19.9542 25.4298 19.9542 24.3742Z" fill="#C0C0C0"/>
<path d="M10.3882 24.378C10.3882 27.0169 8.24902 29.1561 5.61016 29.1561C2.97131 29.1561 0.832092 27.0169 0.832092 24.378C0.832092 21.7392 2.97131 19.6 5.61016 19.6C8.24902 19.6 10.3882 21.7392 10.3882 24.378Z" fill="#3A3A3A"/>
<path d="M19.9542 43.4949C19.9542 42.4394 20.8098 41.5837 21.8654 41.5837H76.3354C77.391 41.5837 78.2467 42.4394 78.2467 43.4949C78.2467 44.5505 77.391 45.4062 76.3354 45.4062H21.8654C20.8098 45.4062 19.9542 44.5505 19.9542 43.4949Z" fill="#C0C0C0"/>
<path d="M10.3882 43.4968C10.3882 46.1357 8.24902 48.2749 5.61016 48.2749C2.97131 48.2749 0.832092 46.1357 0.832092 43.4968C0.832092 40.8579 2.97131 38.7187 5.61016 38.7187C8.24902 38.7187 10.3882 40.8579 10.3882 43.4968Z" fill="#1CCD58"/>
<path d="M19.9542 62.6089C19.9542 61.5534 20.8098 60.6977 21.8654 60.6977H76.3354C77.391 60.6977 78.2467 61.5534 78.2467 62.6089C78.2467 63.6645 77.391 64.5202 76.3354 64.5202H21.8654C20.8098 64.5202 19.9542 63.6645 19.9542 62.6089Z" fill="#C0C0C0"/>
<path d="M10.3882 62.6101C10.3882 65.2489 8.24902 67.3881 5.61016 67.3881C2.97131 67.3881 0.832092 65.2489 0.832092 62.6101C0.832092 59.9712 2.97131 57.832 5.61016 57.832C8.24902 57.832 10.3882 59.9712 10.3882 62.6101Z" fill="#B9FF4A"/>
</svg>
