<svg width="119" height="119" viewBox="0 0 119 119" fill="none" xmlns="http://www.w3.org/2000/svg">
<path d="M110.702 59.5014C133.18 100.215 100.236 133.183 59.5 110.705C18.7641 133.183 -14.1797 100.215 8.29771 59.5014C-14.1797 18.7645 18.7641 -14.18 59.5 8.29788C100.213 -14.18 133.18 18.7645 110.702 59.5014Z" stroke="white" stroke-width="1.5" stroke-miterlimit="10"/>
<path d="M59.5 12.9548C22.4757 -7.47122 -7.47103 22.4762 12.9546 59.5014C-7.47103 96.5265 22.4757 126.474 59.5 106.048C96.5243 126.474 126.471 96.5265 106.045 59.5014C126.471 22.4762 96.5243 -7.47122 59.5 12.9548Z" stroke="white" stroke-width="1.5" stroke-miterlimit="10"/>
<path d="M101.389 59.5013C119.785 92.8147 92.8126 119.788 59.5 101.391C26.1874 119.788 -0.785454 92.8147 17.6114 59.5013C-0.785454 26.188 26.1874 -0.785496 59.5 17.6118C92.8126 -0.785496 119.785 26.188 101.389 59.5013Z" stroke="white" stroke-width="1.5" stroke-miterlimit="10"/>
<path d="M59.5 22.2687C29.876 5.92329 5.92318 29.8766 22.2683 59.5014C5.92318 89.1261 29.876 113.079 59.5 96.7339C89.124 113.079 113.077 89.1261 96.7317 59.5014C113.077 29.8766 89.124 5.92329 59.5 22.2687Z" stroke="white" stroke-width="1.5" stroke-miterlimit="10"/>
<path d="M92.0749 59.5014C106.368 85.4143 85.4124 106.394 59.5 92.077C33.5876 106.371 12.6087 85.4143 26.9251 59.5014C12.6318 33.5884 33.5876 12.609 59.5 26.9257C85.4124 12.6321 106.391 33.5884 92.0749 59.5014Z" stroke="white" stroke-width="1.5" stroke-miterlimit="10"/>
<path d="M59.5 31.5827C37.2993 19.3178 19.3174 37.3001 31.582 59.5014C19.3174 81.7026 37.2993 99.6849 59.5 87.42C81.7007 99.6849 99.6826 81.7026 87.418 59.5014C99.6826 37.3001 81.7007 19.3178 59.5 31.5827Z" stroke="white" stroke-width="1.5" stroke-miterlimit="10"/>
<path d="M82.7612 59.5014C92.974 78.0139 77.9891 92.9992 59.5 82.7631C40.9879 92.9761 26.003 77.9909 36.2388 59.5014C26.026 40.9888 41.0109 26.0035 59.5 36.2396C78.0121 26.0266 92.997 41.0118 82.7612 59.5014Z" stroke="white" stroke-width="1.5" stroke-miterlimit="10"/>
<path d="M59.5 40.8735C44.6995 32.6893 32.7116 44.6775 40.8726 59.5014C32.6885 74.3022 44.6765 86.2904 59.5 78.1292C74.3005 86.3134 86.2884 74.3252 78.1274 59.5014C86.3115 44.7005 74.3235 32.7123 59.5 40.8735Z" stroke="white" stroke-width="1.5" stroke-miterlimit="10"/>
<path d="M73.4706 59.5014C79.6028 70.6135 70.6119 79.6047 59.5 73.4722C48.3881 79.6047 39.3972 70.6135 45.5294 59.5014C39.3972 48.3892 48.3881 39.398 59.5 45.5305C70.6119 39.398 79.6028 48.3892 73.4706 59.5014Z" stroke="white" stroke-width="1.5" stroke-miterlimit="10"/>
<path d="M59.5 50.1874C52.0998 46.1068 46.1058 52.1009 50.1863 59.5014C46.1058 66.9018 52.0998 72.8959 59.5 68.8153C66.9002 72.8959 72.8942 66.9018 68.8137 59.5014C72.8942 52.1009 66.9002 46.1068 59.5 50.1874Z" stroke="white" stroke-width="1.5" stroke-miterlimit="10"/>
<path d="M64.1568 59.5014C66.2086 63.2131 63.2116 66.2101 59.5 64.1583C55.7884 66.2101 52.7914 63.2131 54.8431 59.5014C52.7914 55.7896 55.7884 52.7926 59.5 54.8444C63.2116 52.7926 66.2086 55.7896 64.1568 59.5014Z" stroke="white" stroke-width="1.5" stroke-miterlimit="10"/>
</svg>
