<svg width="31" height="27" viewBox="0 0 31 27" fill="none" xmlns="http://www.w3.org/2000/svg">
<circle cx="16" cy="14" r="13" fill="#F8AA4E"/>
<path d="M20 7.6923V4.80768C20 4.04263 19.6839 3.30892 19.1213 2.76795C18.5587 2.22698 17.7956 1.92307 17 1.92307H14C13.2044 1.92307 12.4413 2.22698 11.8787 2.76795C11.3161 3.30892 11 4.04263 11 4.80768V7.6923M20 7.6923H11M20 7.6923H26C26.7956 7.6923 27.5587 7.99621 28.1213 8.53718C28.6839 9.07815 29 9.81186 29 10.5769V22.1154C29 22.8804 28.6839 23.6141 28.1213 24.1551C27.5587 24.6961 26.7956 25 26 25H8M11 7.6923H8M8 25H5C4.20435 25 3.44129 24.6961 2.87868 24.1551C2.31607 23.6141 2 22.8804 2 22.1154V10.5769C2 9.81186 2.31607 9.07815 2.87868 8.53718C3.44129 7.99621 4.20435 7.6923 5 7.6923H8M8 25V7.6923M23 7.6923V25" stroke="#181818" stroke-width="2" stroke-linecap="round" stroke-linejoin="round"/>
</svg>
