<svg width="26" height="26" viewBox="0 0 26 26" fill="none" xmlns="http://www.w3.org/2000/svg">
<g clip-path="url(#clip0_234_211)">
<path d="M26 13C26 20.1797 20.1797 26 13 26C5.8203 26 0 20.1797 0 13C0 5.8203 5.8203 0 13 0C20.1797 0 26 5.8203 26 13Z" fill="#F8AA4E"/>
<path d="M20.4148 6.23651C18.4553 4.42584 15.869 3.29954 13.1019 3.05179C10.3348 2.80404 7.56017 3.45036 5.25647 4.87933C2.95278 6.3083 1.26434 8.43037 0.482254 10.8797C-0.299836 13.329 -0.126569 15.9521 0.972184 18.2967C1.0867 18.5146 1.12428 18.7599 1.07967 18.9984L0.0287149 23.6361C-0.0117753 23.8139 -0.00350713 23.9981 0.0527764 24.1723C0.10906 24.3464 0.211595 24.505 0.351166 24.6338C0.465582 24.738 0.601812 24.82 0.751644 24.8746C0.901477 24.9293 1.06181 24.9555 1.22298 24.9517H1.46183L6.57329 24.0088C6.83308 23.9801 7.09652 24.0142 7.33762 24.1075C9.89155 25.1162 12.7488 25.2753 15.4168 24.5573C18.0848 23.8393 20.3963 22.2892 21.9529 20.1744C23.5094 18.0595 24.2135 15.5123 23.9436 12.972C23.6737 10.4317 22.4469 8.05736 20.4745 6.25844L20.4148 6.23651ZM21.4061 15.4022C21.1726 16.7113 20.6187 17.9547 19.7861 19.0388C18.9535 20.123 17.8639 21.0196 16.5993 21.6613C15.3347 22.303 13.928 22.673 12.4852 22.7435C11.0423 22.814 9.60078 22.5831 8.26914 22.0682C7.79686 21.8838 7.28953 21.7869 6.77631 21.7832C6.55212 21.7846 6.32844 21.8029 6.10752 21.838L2.7397 22.4629L3.42043 19.3711C3.55601 18.7015 3.46861 18.01 3.16963 17.3867C2.6088 16.1642 2.3573 14.8408 2.43408 13.5162C2.51085 12.1916 2.91389 10.9002 3.61288 9.73928C4.31186 8.57832 5.28857 7.57804 6.4695 6.8137C7.65044 6.04936 9.00483 5.54087 10.4308 5.32651C11.9275 5.101 13.4612 5.20588 14.9051 5.63247C16.3489 6.05906 17.6613 6.79509 18.7339 7.7797C19.8064 8.76431 20.6081 9.96919 21.0728 11.2947C21.5375 12.6202 21.6517 14.0282 21.4061 15.4022Z" fill="#181818"/>
</g>
<defs>
<clipPath id="clip0_234_211">
<rect width="26" height="26" fill="white"/>
</clipPath>
</defs>
</svg>
