<svg width="39" height="39" viewBox="0 0 39 39" fill="none" xmlns="http://www.w3.org/2000/svg">
<rect width="39" height="39" rx="6" fill="url(#paint0_linear_928_118)"/>
<path d="M12.9795 25.1473C12.1446 25.1473 11.4277 25.0049 10.8286 24.7201C10.2295 24.4254 9.76786 23.9786 9.44375 23.3795C9.11964 22.7705 8.93795 22.0094 8.89866 21.096C8.88884 20.6638 8.88393 20.2513 8.88393 19.8585C8.88393 19.4558 8.88884 19.0384 8.89866 18.6062C8.93795 17.7027 9.12455 16.9513 9.45848 16.3522C9.80223 15.7433 10.2737 15.2915 10.8728 14.9969C11.4817 14.6924 12.1839 14.5402 12.9795 14.5402C13.7848 14.5402 14.4871 14.6924 15.0862 14.9969C15.6951 15.2915 16.1714 15.7433 16.5152 16.3522C16.8589 16.9513 17.0455 17.7027 17.075 18.6062C17.0946 19.0384 17.1045 19.4558 17.1045 19.8585C17.1045 20.2513 17.0946 20.6638 17.075 21.096C17.0455 22.0094 16.8638 22.7705 16.5299 23.3795C16.2058 23.9786 15.7442 24.4254 15.1451 24.7201C14.546 25.0049 13.8241 25.1473 12.9795 25.1473ZM12.9795 23.8951C13.7357 23.8951 14.3496 23.6692 14.821 23.2174C15.3022 22.7656 15.5625 22.0339 15.6018 21.0223C15.6214 20.5804 15.6313 20.1875 15.6313 19.8437C15.6313 19.4902 15.6214 19.0973 15.6018 18.6652C15.5821 17.9875 15.4545 17.4375 15.2188 17.0152C14.9929 16.5929 14.6884 16.2835 14.3054 16.0871C13.9223 15.8906 13.4804 15.7924 12.9795 15.7924C12.4982 15.7924 12.0661 15.8906 11.683 16.0871C11.3 16.2835 10.9906 16.5929 10.7549 17.0152C10.529 17.4375 10.4013 17.9875 10.3719 18.6652C10.3621 19.0973 10.3571 19.4902 10.3571 19.8437C10.3571 20.1875 10.3621 20.5804 10.3719 21.0223C10.4112 22.0339 10.6714 22.7656 11.1527 23.2174C11.6339 23.6692 12.2429 23.8951 12.9795 23.8951ZM20.4746 25C20.3665 25 20.283 24.9705 20.2241 24.9116C20.1652 24.8429 20.1357 24.7594 20.1357 24.6612V15.0411C20.1357 14.933 20.1652 14.8496 20.2241 14.7906C20.283 14.7219 20.3665 14.6875 20.4746 14.6875H21.1522C21.2701 14.6875 21.3585 14.717 21.4174 14.7759C21.4763 14.825 21.5107 14.8643 21.5205 14.8937L26.4116 22.4071V15.0411C26.4116 14.933 26.4411 14.8496 26.5 14.7906C26.5589 14.7219 26.6424 14.6875 26.7505 14.6875H27.4576C27.5656 14.6875 27.6491 14.7219 27.708 14.7906C27.7768 14.8496 27.8112 14.933 27.8112 15.0411V24.6464C27.8112 24.7446 27.7768 24.8281 27.708 24.8969C27.6491 24.9656 27.5705 25 27.4723 25H26.7652C26.6571 25 26.5737 24.9705 26.5147 24.9116C26.4656 24.8527 26.4313 24.8134 26.4116 24.7937L21.5353 17.354V24.6612C21.5353 24.7594 21.5009 24.8429 21.4321 24.9116C21.3732 24.9705 21.2897 25 21.1817 25H20.4746Z" fill="white"/>
<path d="M10.8286 24.7201L10.4148 25.5614L10.426 25.5668L10.8286 24.7201ZM9.44375 23.3795L8.61616 23.82L8.61918 23.8255L9.44375 23.3795ZM8.89866 21.096L7.9614 21.1173L7.96162 21.1268L7.96203 21.1363L8.89866 21.096ZM8.89866 18.6062L7.96205 18.5655L7.96162 18.5752L7.9614 18.5849L8.89866 18.6062ZM9.45848 16.3522L8.64207 15.8914L8.63959 15.8958L9.45848 16.3522ZM10.8728 14.9969L11.2865 15.8382L11.292 15.8354L10.8728 14.9969ZM15.0862 14.9969L14.6614 15.8326L14.6696 15.8368L14.6778 15.8408L15.0862 14.9969ZM16.5152 16.3522L15.6988 16.8131L15.702 16.8188L16.5152 16.3522ZM17.075 18.6062L16.1379 18.6368L16.1385 18.6488L17.075 18.6062ZM17.075 21.096L16.1384 21.0534L16.138 21.0658L17.075 21.096ZM16.5299 23.3795L15.7079 22.9287L15.7053 22.9334L16.5299 23.3795ZM15.1451 24.7201L15.5476 25.5669L15.5588 25.5614L15.1451 24.7201ZM14.821 23.2174L14.1793 22.5339L14.1723 22.5405L14.821 23.2174ZM15.6018 21.0223L14.6652 20.9807L14.665 20.9859L15.6018 21.0223ZM15.6018 18.6652L14.6647 18.6923L14.6649 18.7L14.6653 18.7077L15.6018 18.6652ZM15.2188 17.0152L14.3921 17.4574L14.396 17.4648L14.4001 17.4721L15.2188 17.0152ZM14.3054 16.0871L14.7332 15.2528L14.7332 15.2528L14.3054 16.0871ZM11.683 16.0871L11.2552 15.2528L11.2552 15.2528L11.683 16.0871ZM10.7549 17.0152L9.93629 16.5583L9.9322 16.5656L9.92824 16.573L10.7549 17.0152ZM10.3719 18.6652L9.43526 18.6245L9.43484 18.6342L9.43462 18.6439L10.3719 18.6652ZM10.3719 21.0223L9.43461 21.0431L9.43478 21.0509L9.43508 21.0587L10.3719 21.0223ZM11.1527 23.2174L11.7943 22.5339L11.7943 22.5339L11.1527 23.2174ZM12.9795 24.2098C12.2489 24.2098 11.6763 24.085 11.2311 23.8734L10.426 25.5668C11.1791 25.9248 12.0404 26.0848 12.9795 26.0848V24.2098ZM11.2423 23.8788C10.8216 23.6719 10.5018 23.365 10.2683 22.9334L8.61918 23.8255C9.03388 24.5921 9.63734 25.179 10.4148 25.5614L11.2423 23.8788ZM10.2713 22.939C10.0308 22.487 9.87043 21.8727 9.83529 21.0557L7.96203 21.1363C8.00546 22.1461 8.20852 23.0541 8.61618 23.8199L10.2713 22.939ZM9.83592 21.0747C9.82624 20.6489 9.82143 20.2436 9.82143 19.8585H7.94643C7.94643 20.2591 7.95144 20.6787 7.9614 21.1173L9.83592 21.0747ZM9.82143 19.8585C9.82143 19.4634 9.82625 19.0531 9.83592 18.6276L7.9614 18.5849C7.95143 19.0237 7.94643 19.4482 7.94643 19.8585H9.82143ZM9.83528 18.647C9.87016 17.8446 10.0335 17.2463 10.2774 16.8087L8.63959 15.8958C8.21565 16.6564 8.00573 17.5607 7.96205 18.5655L9.83528 18.647ZM10.2749 16.8131C10.5304 16.3604 10.8652 16.0454 11.2865 15.8381L10.459 14.1556C9.68215 14.5377 9.07402 15.1262 8.64208 15.8914L10.2749 16.8131ZM11.292 15.8354C11.7505 15.6062 12.305 15.4777 12.9795 15.4777V13.6027C12.0629 13.6027 11.2129 13.7787 10.4535 14.1583L11.292 15.8354ZM12.9795 15.4777C13.6662 15.4777 14.2176 15.6071 14.6614 15.8326L15.5109 14.1611C14.7565 13.7778 13.9034 13.6027 12.9795 13.6027V15.4777ZM14.6778 15.8408C15.1088 16.0493 15.4455 16.3645 15.6988 16.8131L17.3316 15.8914C16.8973 15.1221 16.2813 14.5337 15.4945 14.153L14.6778 15.8408ZM15.702 16.8188C15.9495 17.2502 16.112 17.8408 16.138 18.6368L18.012 18.5757C17.979 17.5646 17.7683 16.6525 17.3283 15.8857L15.702 16.8188ZM16.1385 18.6488C16.1575 19.0678 16.167 19.471 16.167 19.8585H18.042C18.042 19.4406 18.0318 19.009 18.0115 18.5637L16.1385 18.6488ZM16.167 19.8585C16.167 20.2358 16.1575 20.6341 16.1385 21.0534L18.0115 21.1386C18.0318 20.6936 18.042 20.2669 18.042 19.8585H16.167ZM16.138 21.0658C16.1118 21.8766 15.9522 22.4832 15.7079 22.9287L17.3519 23.8302C17.7755 23.0579 17.9792 22.1422 18.012 21.1262L16.138 21.0658ZM15.7053 22.9334C15.4718 23.365 15.1521 23.6719 14.7314 23.8788L15.5588 25.5614C16.3363 25.179 16.9398 24.5921 17.3545 23.8255L15.7053 22.9334ZM14.7426 23.8734C14.2987 24.0844 13.7217 24.2098 12.9795 24.2098V26.0848C13.9265 26.0848 14.7933 25.9254 15.5476 25.5668L14.7426 23.8734ZM12.9795 24.8326C13.9363 24.8326 14.7961 24.5398 15.4696 23.8943L14.1723 22.5405C13.903 22.7986 13.5351 22.9576 12.9795 22.9576V24.8326ZM15.4626 23.9009C16.1993 23.2094 16.4947 22.1881 16.5386 21.0587L14.665 20.9859C14.6303 21.8798 14.4052 22.3219 14.1793 22.5339L15.4626 23.9009ZM16.5384 21.0639C16.5585 20.6118 16.5688 20.2046 16.5688 19.8437H14.6938C14.6938 20.1704 14.6844 20.5489 14.6652 20.9807L16.5384 21.0639ZM16.5688 19.8437C16.5688 19.4733 16.5585 19.0659 16.5383 18.6226L14.6653 18.7077C14.6844 19.1287 14.6938 19.5071 14.6938 19.8437H16.5688ZM16.5389 18.638C16.5165 17.8667 16.3701 17.1544 16.0374 16.5583L14.4001 17.4721C14.5389 17.7206 14.6478 18.1083 14.6647 18.6923L16.5389 18.638ZM16.0454 16.573C15.7401 16.0022 15.3048 15.546 14.7332 15.2528L13.8776 16.9213C14.072 17.0209 14.2456 17.1835 14.3921 17.4574L16.0454 16.573ZM14.7332 15.2528C14.1976 14.9782 13.6048 14.8549 12.9795 14.8549V16.7299C13.3559 16.7299 13.647 16.803 13.8776 16.9213L14.7332 15.2528ZM12.9795 14.8549C12.3672 14.8549 11.7856 14.9809 11.2552 15.2528L12.1108 16.9213C12.3465 16.8004 12.6292 16.7299 12.9795 16.7299V14.8549ZM11.2552 15.2528C10.6877 15.5439 10.2507 15.995 9.93629 16.5583L11.5735 17.4721C11.7306 17.1907 11.9123 17.0231 12.1108 16.9213L11.2552 15.2528ZM9.92824 16.573C9.61442 17.1597 9.46846 17.8609 9.43526 18.6245L11.3085 18.7059C11.3342 18.1141 11.4436 17.7153 11.5816 17.4574L9.92824 16.573ZM9.43462 18.6439C9.42467 19.0816 9.41964 19.4817 9.41964 19.8437H11.2946C11.2946 19.4986 11.2994 19.113 11.3091 18.6865L9.43462 18.6439ZM9.41964 19.8437C9.41964 20.1961 9.42467 20.5961 9.43461 21.0431L11.3091 21.0015C11.2994 20.5646 11.2946 20.1789 11.2946 19.8437H9.41964ZM9.43508 21.0587C9.47894 22.1881 9.77438 23.2094 10.511 23.9009L11.7943 22.5339C11.5685 22.3219 11.3434 21.8798 11.3087 20.9859L9.43508 21.0587ZM10.511 23.9009C11.1868 24.5353 12.0344 24.8326 12.9795 24.8326V22.9576C12.4513 22.9576 12.0811 22.8031 11.7943 22.5339L10.511 23.9009ZM20.2241 24.9116L19.5123 25.5217L19.5357 25.5491L19.5612 25.5745L20.2241 24.9116ZM20.2241 14.7906L20.887 15.4535L20.9125 15.4281L20.9359 15.4007L20.2241 14.7906ZM21.4174 14.7759L20.7545 15.4388L20.7846 15.4689L20.8172 15.4961L21.4174 14.7759ZM21.5205 14.8937L20.6311 15.1902L20.6692 15.3044L20.7349 15.4052L21.5205 14.8937ZM26.4116 22.4071L25.6259 22.9186L27.3491 25.5657V22.4071H26.4116ZM26.5 14.7906L27.1629 15.4535L27.1884 15.4281L27.2118 15.4007L26.5 14.7906ZM27.708 14.7906L26.9962 15.4007L27.0432 15.4555L27.0979 15.5024L27.708 14.7906ZM27.708 24.8969L27.0451 24.234L27.0197 24.2594L26.9962 24.2868L27.708 24.8969ZM26.5147 24.9116L25.7945 25.5118L25.8218 25.5444L25.8518 25.5745L26.5147 24.9116ZM26.4116 24.7937L25.6275 25.3077L25.6804 25.3884L25.7487 25.4567L26.4116 24.7937ZM21.5353 17.354L22.3194 16.8401L20.5978 14.2135V17.354H21.5353ZM21.4321 24.9116L20.7692 24.2487L20.7692 24.2487L21.4321 24.9116ZM20.4746 24.0625C20.5383 24.0625 20.7224 24.084 20.887 24.2487L19.5612 25.5745C19.8437 25.857 20.1948 25.9375 20.4746 25.9375V24.0625ZM20.9359 24.3015C20.98 24.353 21.0172 24.4155 21.0419 24.4854C21.0662 24.5542 21.0732 24.6155 21.0732 24.6612H19.1982C19.1982 24.9627 19.295 25.2682 19.5123 25.5217L20.9359 24.3015ZM21.0732 24.6612V15.0411H19.1982V24.6612H21.0732ZM21.0732 15.0411C21.0732 15.1048 21.0517 15.2889 20.887 15.4535L19.5612 14.1277C19.2787 14.4102 19.1982 14.7613 19.1982 15.0411H21.0732ZM20.9359 15.4007C20.8693 15.4784 20.7835 15.5408 20.6879 15.5802C20.5965 15.6178 20.5194 15.625 20.4746 15.625V13.75C20.151 13.75 19.784 13.8636 19.5123 14.1805L20.9359 15.4007ZM20.4746 15.625H21.1522V13.75H20.4746V15.625ZM21.1522 15.625C21.1256 15.625 20.9334 15.6177 20.7545 15.4388L22.0803 14.113C21.7836 13.8162 21.4146 13.75 21.1522 13.75V15.625ZM20.8172 15.4961C20.8247 15.5023 20.8082 15.4897 20.7819 15.4595C20.768 15.4437 20.7451 15.4159 20.72 15.3768C20.6957 15.339 20.6597 15.276 20.6311 15.1902L22.4099 14.5973C22.3477 14.4106 22.2438 14.283 22.1929 14.2248C22.1322 14.1554 22.069 14.0985 22.0176 14.0557L20.8172 15.4961ZM20.7349 15.4052L25.6259 22.9186L27.1973 21.8957L22.3062 14.3823L20.7349 15.4052ZM27.3491 22.4071V15.0411H25.4741V22.4071H27.3491ZM27.3491 15.0411C27.3491 15.1048 27.3276 15.2889 27.1629 15.4535L25.8371 14.1277C25.5546 14.4102 25.4741 14.7613 25.4741 15.0411H27.3491ZM27.2118 15.4007C27.1452 15.4784 27.0593 15.5408 26.9638 15.5802C26.8723 15.6178 26.7953 15.625 26.7505 15.625V13.75C26.4269 13.75 26.0599 13.8636 25.7882 14.1805L27.2118 15.4007ZM26.7505 15.625H27.4576V13.75H26.7505V15.625ZM27.4576 15.625C27.4127 15.625 27.3357 15.6178 27.2443 15.5802C27.1487 15.5408 27.0628 15.4784 26.9962 15.4007L28.4198 14.1805C28.1482 13.8636 27.7812 13.75 27.4576 13.75V15.625ZM27.0979 15.5024C27.0202 15.4358 26.9579 15.35 26.9185 15.2544C26.8809 15.163 26.8737 15.0859 26.8737 15.0411H28.7487C28.7487 14.7175 28.6351 14.3505 28.3182 14.0788L27.0979 15.5024ZM26.8737 15.0411V24.6464H28.7487V15.0411H26.8737ZM26.8737 24.6464C26.8737 24.5839 26.8851 24.5068 26.9185 24.4257C26.952 24.3445 26.9988 24.2803 27.0451 24.234L28.371 25.5598C28.6175 25.3132 28.7487 24.9904 28.7487 24.6464H26.8737ZM26.9962 24.2868C27.0534 24.2201 27.1319 24.1579 27.2291 24.1153C27.3244 24.0737 27.4108 24.0625 27.4723 24.0625V25.9375C27.818 25.9375 28.1664 25.8026 28.4198 25.507L26.9962 24.2868ZM27.4723 24.0625H26.7652V25.9375H27.4723V24.0625ZM26.7652 24.0625C26.8289 24.0625 27.013 24.084 27.1776 24.2487L25.8518 25.5745C26.1343 25.857 26.4854 25.9375 26.7652 25.9375V24.0625ZM27.2349 24.3114C27.1887 24.2559 27.1286 24.1849 27.0745 24.1308L25.7487 25.4567C25.7409 25.4488 25.7368 25.4444 25.738 25.4457C25.7387 25.4464 25.7414 25.4494 25.7466 25.4553C25.7571 25.4673 25.7728 25.4857 25.7945 25.5118L27.2349 24.3114ZM27.1957 24.2798L22.3194 16.8401L20.7512 17.8679L25.6275 25.3077L27.1957 24.2798ZM20.5978 17.354V24.6612H22.4728V17.354H20.5978ZM20.5978 24.6612C20.5978 24.5986 20.6092 24.5216 20.6426 24.4405C20.6761 24.3592 20.7229 24.295 20.7692 24.2487L22.0951 25.5745C22.3416 25.328 22.4728 25.0052 22.4728 24.6612H20.5978ZM20.7692 24.2487C20.9339 24.084 21.118 24.0625 21.1817 24.0625V25.9375C21.4615 25.9375 21.8125 25.857 22.0951 25.5745L20.7692 24.2487ZM21.1817 24.0625H20.4746V25.9375H21.1817V24.0625Z" fill="white"/>
<defs>
<linearGradient id="paint0_linear_928_118" x1="-5.5" y1="8.53951e-08" x2="44" y2="39" gradientUnits="userSpaceOnUse">
<stop offset="0.00216147" stop-color="#FFAC68"/>
<stop offset="1" stop-color="#FF7188"/>
</linearGradient>
</defs>
</svg>
