<svg width="85" height="85" viewBox="0 0 85 85" fill="none" xmlns="http://www.w3.org/2000/svg">
<circle cx="42.5" cy="42.5" r="40.5" fill="#FFB762"/>
<path d="M26.552 12.372C29.4503 10.177 32.9886 8.99315 36.6242 9.00188C37.8799 8.97372 39.1223 9.26273 40.2366 9.84216C41.3509 10.4216 42.301 11.2727 42.9991 12.3168C43.6971 11.2727 44.6473 10.4216 45.7615 9.84216C46.8758 9.26273 48.1183 8.97372 49.3739 9.00188C53.0096 8.99315 56.5478 10.177 59.4461 12.372C61.6773 14.106 63.3985 16.5072 64.0062 19.4098C65.4002 19.5161 66.6752 20.0941 67.7461 20.9653C69.3696 22.2828 70.5511 24.259 71.2948 26.3499C72.4593 29.6011 72.7737 33.7447 71.5668 37.2721C71.8728 37.4166 72.1745 37.5866 72.4677 37.7821C73.6365 38.5598 74.5247 39.6733 75.1792 40.9865C76.4669 43.5577 76.9981 47.1446 76.9981 51.5007C76.9981 56.3498 75.1494 59.6052 72.8035 61.6154C71.5062 62.7277 69.9753 63.5339 68.3241 63.9741C67.8991 66.3455 66.7092 69.091 64.8435 71.4199C62.421 74.4586 58.6641 77 53.6238 77C49.6289 77 46.45 74.7901 44.3845 72.6226C43.8907 72.1051 43.4281 71.5588 42.9991 70.9864C42.5701 71.5588 42.1074 72.1052 41.6136 72.6226C39.5482 74.7901 36.3735 77 32.3744 77C27.334 77 23.5813 74.4586 21.1547 71.4199C19.4112 69.2548 18.217 66.7003 17.674 63.9741C16.0228 63.5339 14.4919 62.7277 13.1946 61.6154C10.8487 59.6052 9 56.3456 9 51.5007C9 47.1446 9.53549 43.5534 10.8189 40.9865C11.4734 39.6733 12.3617 38.5641 13.5304 37.7778C13.8174 37.5878 14.1186 37.4202 14.4314 37.2763C13.2244 33.7404 13.5389 29.6011 14.7033 26.3499C15.4471 24.259 16.6285 22.2828 18.252 20.9653C19.323 20.0941 20.5979 19.5203 21.9919 19.4098C22.6039 16.5072 24.3251 14.106 26.5563 12.372H26.552ZM40.8741 19.6266V19.5841L40.8656 19.3716C40.8031 18.2637 40.5827 17.1703 40.2111 16.1247C39.9466 15.3353 39.4962 14.6211 38.8979 14.0422C38.2702 13.4956 37.4557 13.2124 36.6242 13.2518C33.9338 13.2425 31.3138 14.1109 29.1614 15.7252C27.1895 17.2594 25.9995 19.3376 25.9995 21.7515C25.9993 22.088 25.9191 22.4197 25.7656 22.7192C25.6121 23.0186 25.3897 23.2774 25.1166 23.4741C24.8436 23.6708 24.5277 23.7998 24.195 23.8506C23.8624 23.9013 23.5224 23.8723 23.2031 23.766C22.4041 23.5025 21.6902 23.6512 20.9294 24.2632C20.0964 24.9432 19.2847 26.1502 18.7025 27.7779C17.5168 31.1013 17.64 35.1259 19.2677 37.5738C19.5002 37.9225 19.6244 38.332 19.6247 38.7511H22.8121C25.3482 38.7511 27.7804 39.7585 29.5736 41.5518C31.3669 43.345 32.3744 45.7772 32.3744 48.3133V49.737C33.7921 50.2383 34.9871 51.2246 35.748 52.5217C36.5089 53.8188 36.7867 55.3431 36.5324 56.8252C36.2781 58.3074 35.5081 59.6519 34.3583 60.6212C33.2086 61.5904 31.7532 62.1221 30.2494 62.1221C28.7456 62.1221 27.2902 61.5904 26.1405 60.6212C24.9908 59.6519 24.2207 58.3074 23.9664 56.8252C23.7121 55.3431 23.99 53.8188 24.7508 52.5217C25.5117 51.2246 26.7067 50.2383 28.1245 49.737V48.3133C28.1245 45.3809 25.7445 43.0009 22.8121 43.0009H15.3748C15.1208 43.0005 14.8689 42.9545 14.6311 42.8649L14.6183 42.8904C13.7769 44.5691 13.2499 47.3571 13.2499 51.5007C13.2499 55.1514 14.5886 57.2083 15.9613 58.3855C17.436 59.652 19.0722 60.0005 19.6247 60.0005C20.1883 60.0005 20.7288 60.2243 21.1273 60.6228C21.5258 61.0214 21.7496 61.5618 21.7496 62.1254C21.7496 63.6894 22.5996 66.422 24.4696 68.768C26.2928 71.0417 28.9149 72.7501 32.3744 72.7501C34.7543 72.7501 36.8877 71.4199 38.5367 69.6902C39.3484 68.8402 39.9816 67.9605 40.3939 67.238C40.5815 66.9176 40.7422 66.5821 40.8741 66.235V32.3762H36.263C35.7617 33.794 34.7754 34.989 33.4783 35.7499C32.1812 36.5107 30.6569 36.7886 29.1748 36.5343C27.6926 36.28 26.3481 35.5099 25.3788 34.3602C24.4095 33.2105 23.8779 31.7551 23.8779 30.2513C23.8779 28.7475 24.4095 27.2921 25.3788 26.1424C26.3481 24.9926 27.6926 24.2226 29.1748 23.9683C30.6569 23.714 32.1812 23.9918 33.4783 24.7527C34.7754 25.5136 35.7617 26.7086 36.263 28.1263H40.8741V19.6266ZM45.124 62.1212V66.2308C45.256 66.5779 45.4166 66.9133 45.6042 67.2338C46.0207 67.9562 46.6497 68.836 47.4572 69.6859C49.1104 71.4156 51.2481 72.7459 53.6238 72.7459C57.0832 72.7459 59.7053 71.0374 61.5285 68.7637C63.3985 66.4178 64.2485 63.6851 64.2485 62.1212C64.2485 61.5576 64.4723 61.0171 64.8709 60.6186C65.2694 60.2201 65.8098 59.9962 66.3734 59.9962C66.9259 59.9962 68.5621 59.6477 70.0368 58.3813C71.4095 57.204 72.7482 55.1471 72.7482 51.4964C72.7482 47.3528 72.217 44.5691 71.3798 42.8862C71.0997 42.2595 70.6601 41.7173 70.1048 41.3137C69.6263 41.0078 69.0659 40.8551 68.4984 40.876C68.114 40.8758 67.7369 40.7713 67.4072 40.5738C67.0775 40.3762 66.8075 40.0929 66.6261 39.754C66.4447 39.4152 66.3586 39.0334 66.3769 38.6495C66.3953 38.2656 66.5175 37.8938 66.7304 37.5738C68.3624 35.1259 68.4814 31.1013 67.2956 27.7779C66.7134 26.1502 65.9017 24.9389 65.0687 24.2632C64.308 23.6512 63.594 23.4982 62.795 23.766C62.4757 23.8723 62.1358 23.9013 61.8031 23.8506C61.4704 23.7998 61.1546 23.6708 60.8815 23.4741C60.6085 23.2774 60.386 23.0186 60.2325 22.7192C60.079 22.4197 59.9988 22.088 59.9986 21.7515C59.9986 19.3376 58.8086 17.2594 56.8324 15.7252C54.6813 14.1118 52.0629 13.2435 49.3739 13.2518C48.5424 13.2124 47.7279 13.4956 47.1002 14.0422C46.5001 14.6204 46.0482 15.3347 45.7827 16.1247C45.3781 17.2348 45.1557 18.403 45.124 19.5841V57.8755H48.3114C51.2438 57.8755 53.6238 55.4956 53.6238 52.5632V44.7646C52.206 44.2634 51.011 43.277 50.2501 41.9799C49.4893 40.6829 49.2114 39.1585 49.4657 37.6764C49.72 36.1943 50.4901 34.8497 51.6398 33.8805C52.7895 32.9112 54.2449 32.3796 55.7487 32.3796C57.2525 32.3796 58.7079 32.9112 59.8576 33.8805C61.0074 34.8497 61.7774 36.1943 62.0317 37.6764C62.286 39.1585 62.0082 40.6829 61.2473 41.9799C60.4864 43.277 59.2914 44.2634 57.8736 44.7646V52.5632C57.8736 55.0992 56.8662 57.5314 55.0729 59.3247C53.2797 61.118 50.8475 62.1254 48.3114 62.1254H45.124V62.1212ZM28.1245 30.2513C28.1245 30.8149 28.3484 31.3553 28.7469 31.7538C29.1454 32.1524 29.6858 32.3762 30.2494 32.3762C30.813 32.3762 31.3535 32.1524 31.752 31.7538C32.1505 31.3553 32.3744 30.8149 32.3744 30.2513C32.3744 29.6877 32.1505 29.1472 31.752 28.7487C31.3535 28.3502 30.813 28.1263 30.2494 28.1263C29.6858 28.1263 29.1454 28.3502 28.7469 28.7487C28.3484 29.1472 28.1245 29.6877 28.1245 30.2513ZM55.7487 40.876C56.3123 40.876 56.8528 40.6521 57.2513 40.2536C57.6498 39.8551 57.8736 39.3146 57.8736 38.7511C57.8736 38.1875 57.6498 37.647 57.2513 37.2485C56.8528 36.85 56.3123 36.6261 55.7487 36.6261C55.1851 36.6261 54.6446 36.85 54.2461 37.2485C53.8476 37.647 53.6238 38.1875 53.6238 38.7511C53.6238 39.3146 53.8476 39.8551 54.2461 40.2536C54.6446 40.6521 55.1851 40.876 55.7487 40.876ZM30.2494 53.6256C29.6858 53.6256 29.1454 53.8495 28.7469 54.248C28.3484 54.6465 28.1245 55.187 28.1245 55.7506C28.1245 56.3142 28.3484 56.8546 28.7469 57.2531C29.1454 57.6516 29.6858 57.8755 30.2494 57.8755C30.813 57.8755 31.3535 57.6516 31.752 57.2531C32.1505 56.8546 32.3744 56.3142 32.3744 55.7506C32.3744 55.187 32.1505 54.6465 31.752 54.248C31.3535 53.8495 30.813 53.6256 30.2494 53.6256Z" fill="#1A1918"/>
</svg>
