<svg width="85" height="85" viewBox="0 0 85 85" fill="none" xmlns="http://www.w3.org/2000/svg">
<circle cx="42.5" cy="42.5" r="34.5" fill="#FFB762"/>
<path d="M39.9447 10.0889C41.0007 7.30371 44.9968 7.30371 46.0561 10.0889L52.8868 29.0108C53.3652 30.2648 54.5829 31.0997 55.9424 31.0997H72.7288C75.8306 31.0997 77.1836 34.9606 74.745 36.8515L62.7995 47.5994C62.2644 48.0108 61.8734 48.5811 61.6825 49.2285C61.4916 49.8758 61.5107 50.5671 61.737 51.203L66.0994 69.6926C67.1619 72.6625 63.7235 75.2134 61.1232 73.3852L44.8978 63.0894C44.3422 62.6988 43.6796 62.4893 43.0004 62.4893C42.3212 62.4893 41.6586 62.6988 41.103 63.0894L24.8776 73.3852C22.2806 75.2134 18.8389 72.6592 19.9014 69.6926L24.2638 51.203C24.4901 50.5671 24.5092 49.8758 24.3183 49.2285C24.1274 48.5811 23.7364 48.0108 23.2013 47.5994L11.2558 36.8515C8.81392 34.9606 10.1735 31.0997 13.2687 31.0997H30.0551C30.716 31.1019 31.362 30.9033 31.9077 30.5303C32.4533 30.1573 32.8728 29.6274 33.1107 29.0108L39.9414 10.0889H39.9447Z" stroke="#1A1918" stroke-width="5" stroke-linecap="round" stroke-linejoin="round"/>
</svg>
